# xmcd
#
# Track frame offsets: 
#        150
#        24933
#        56207
#        68492
#        86668
#        112746
#        132638
#        160871
#        182125
#
# Disc length: 2646 seconds
#
# Revision: 14
# Processed by: cddbd v1.5.2PL0 Copyright (c) Steve Scherf et al.
# Submitted via: ExactAudioCopyFreeDBPlugin 1.0
#
DISCID=710a5409
DTITLE=Kenny Burrell - Midnight Blue
DYEAR=1999
DGENRE=Jazz
TTITLE0=Chitlins Con Carne
TTITLE1=Mule
TTITLE2=Soul Lament
TTITLE3=Midnight Blue
TTITLE4=Wavy Gravy
TTITLE5=Gee Baby, Ain't I Good To You
TTITLE6=Saturday Night Blues
TTITLE7=Kenny's Sound
TTITLE8=K Twist
EXTD=YEAR: 1967
EXTT0=
EXTT1=
EXTT2=
EXTT3=
EXTT4=
EXTT5=
EXTT6=
EXTT7=
EXTT8=
PLAYORDER=
